<?xml version="1.0" standalone="no"?>
<!DOCTYPE svg PUBLIC "-//W3C//DTD SVG 20010904//EN"
 "http://www.w3.org/TR/2001/REC-SVG-20010904/DTD/svg10.dtd">
<svg version="1.0" xmlns="http://www.w3.org/2000/svg"
 width="3456.000000pt" height="2304.000000pt" viewBox="0 0 3456.000000 2304.000000"
 preserveAspectRatio="xMidYMid meet">

<g transform="translate(0.000000,2304.000000) scale(0.100000,-0.100000)"
fill="#000000" stroke="none">
<path d="M17876 8435 c13 -21 15 -31 6 -50 -15 -32 -57 -43 -81 -21 -25 23
-31 20 -31 -15 0 -45 56 -99 103 -99 107 0 141 154 43 195 -50 21 -59 19 -40
-10z"/>
<path d="M17024 8383 c-35 -75 -42 -156 -16 -202 29 -53 80 -74 197 -82 55 -4
102 -8 105 -8 2 -1 38 -36 80 -80 92 -96 113 -104 242 -89 118 14 147 4 245
-77 92 -76 122 -85 246 -72 110 12 143 1 245 -83 95 -77 131 -88 207 -59 79
29 119 22 201 -37 222 -158 390 -87 438 185 5 29 4 32 -12 26 -27 -12 -118
-18 -155 -11 -19 3 -76 34 -128 67 -88 57 -97 60 -144 56 -27 -2 -70 -9 -95
-17 -66 -19 -110 -7 -183 50 -131 104 -134 105 -286 102 -156 -2 -178 4 -281
88 -97 79 -114 84 -254 76 -114 -6 -121 -6 -172 19 -30 15 -68 44 -89 70 -57
70 -104 93 -210 101 -49 3 -104 12 -122 20 l-32 13 -27 -56z"/>
<path d="M18393 8293 c22 -25 22 -56 -1 -76 -23 -21 -56 -22 -72 -2 -22 26
-34 2 -20 -39 26 -80 107 -101 166 -42 64 64 34 149 -61 172 -29 7 -30 7 -12
-13z"/>
<path d="M31660 7775 c-38 -13 -57 -14 -123 -4 -45 7 -108 9 -150 5 -407 -39
-882 -274 -1178 -584 -227 -237 -331 -469 -332 -737 0 -246 78 -434 254 -612
35 -35 64 -62 65 -60 2 1 -13 63 -32 137 -30 114 -35 147 -32 215 7 135 55
197 205 267 236 110 508 166 990 203 111 8 233 21 271 30 145 30 272 93 351
175 33 35 40 38 45 23 3 -10 12 -115 21 -233 25 -349 54 -551 91 -621 33 -65
78 -40 125 71 58 136 140 213 241 226 87 11 138 -52 138 -168 0 -157 -71 -281
-222 -392 -21 -15 -42 -35 -48 -46 -12 -23 -40 -323 -40 -430 0 -41 6 -86 13
-100 15 -31 52 -37 78 -14 19 17 19 13 19 -202 0 -120 3 -235 6 -254 5 -33 0
-41 -84 -136 -50 -56 -127 -130 -171 -166 -200 -160 -516 -272 -677 -240 -119
24 -218 93 -264 182 -30 60 -50 153 -57 270 -7 127 -24 147 -43 53 -48 -230
66 -435 285 -514 87 -32 241 -32 349 0 228 67 469 215 616 378 98 110 216 309
208 351 -2 9 -27 -20 -58 -68 l-55 -83 -6 34 c-4 19 -12 120 -19 226 l-12 191
55 79 c182 263 306 611 348 982 16 145 6 437 -20 562 -24 117 -70 257 -112
341 -87 174 -235 348 -399 468 -97 70 -276 161 -365 185 -90 23 -221 28 -275
10z"/>
<path d="M31123 6160 c-50 -11 -98 -44 -101 -68 -4 -28 16 -29 93 -2 79 27
163 26 248 -4 61 -22 67 -23 67 -7 0 23 -79 65 -148 80 -59 12 -111 13 -159 1z"/>
<path d="M30561 6129 c-24 -5 -59 -19 -78 -31 -35 -24 -79 -100 -68 -118 12
-19 41 -10 64 21 38 51 101 73 188 65 66 -5 73 -4 73 13 0 35 -103 64 -179 50z"/>
<path d="M31088 5950 c-25 -26 -29 -36 -24 -63 8 -41 39 -67 82 -67 47 0 74
29 74 79 0 31 -6 44 -26 60 -37 29 -70 26 -106 -9z"/>
<path d="M30607 5940 c-33 -26 -41 -63 -23 -99 17 -31 34 -41 72 -41 38 0 61
16 73 50 12 37 1 72 -31 94 -30 21 -60 20 -91 -4z"/>
<path d="M30827 5613 c-31 -30 36 -121 109 -149 65 -25 144 -7 144 32 0 8 -10
14 -24 14 -54 0 -89 15 -141 61 -54 47 -74 57 -88 42z"/>
<path d="M7472 5454 c-105 -31 -147 -52 -196 -101 -56 -55 -89 -133 -89 -206
1 -47 8 -73 34 -125 19 -36 39 -67 44 -68 6 -1 56 68 113 154 57 86 134 193
172 237 38 44 79 92 90 108 l21 27 -53 -1 c-29 0 -90 -11 -136 -25z"/>
<path d="M31310 5445 c-30 -13 -96 -34 -147 -46 -124 -29 -128 -32 -105 -89
45 -114 91 -160 170 -168 116 -11 194 80 191 223 -2 108 -19 120 -109 80z m66
-112 c-10 -87 -46 -138 -103 -149 -44 -8 -75 1 -113 32 -26 22 -70 90 -70 109
0 3 15 5 34 5 45 0 151 34 201 64 35 21 41 23 49 9 5 -9 6 -40 2 -70z"/>
<path d="M32035 5271 c-13 -42 -125 -201 -191 -271 -215 -228 -442 -295 -740
-220 -66 16 -161 46 -213 65 -52 19 -97 33 -100 30 -20 -20 103 -101 203 -135
259 -86 500 -59 706 80 89 59 237 211 283 290 37 63 74 166 64 176 -3 3 -8 -4
-12 -15z"/>
<path d="M31439 5191 c-12 -22 -40 -54 -61 -71 -68 -55 -36 -96 39 -50 38 23
75 91 71 127 -5 41 -24 38 -49 -6z"/>
<path d="M32756 4735 c-7 -19 -6 -19 118 -46 109 -23 242 -62 351 -103 93 -36
285 -127 285 -136 0 -5 -12 -11 -27 -14 -131 -33 -301 -278 -407 -584 -40
-116 -44 -145 -20 -140 11 2 29 42 54 120 69 209 162 381 259 478 108 108 200
120 326 44 63 -37 75 -41 75 -21 0 28 -30 47 -264 167 -192 100 -445 191 -633
229 -121 25 -110 24 -117 6z"/>
<path d="M6892 4284 c-120 -59 -176 -150 -208 -336 -18 -107 -39 -153 -89
-196 -73 -65 -182 -103 -375 -132 -309 -46 -448 -99 -553 -209 -65 -67 -94
-124 -176 -332 -93 -237 -205 -411 -365 -569 -61 -60 -76 -80 -76 -105 -1 -45
-32 -106 -73 -142 -71 -62 -206 -79 -392 -48 -125 20 -180 19 -232 -6 -70 -34
-100 -98 -82 -177 13 -60 60 -154 74 -148 17 6 39 -131 30 -191 -12 -87 33
-298 91 -430 27 -61 104 -182 129 -203 11 -9 22 -9 51 0 20 7 67 17 104 24
l68 11 -50 62 -51 62 -27 -29 c-37 -40 -87 -42 -96 -5 -7 28 12 63 48 91 l23
17 -56 113 c-32 63 -67 143 -79 178 -18 56 -25 65 -48 68 -21 2 -28 9 -30 31
-2 16 3 38 11 51 13 19 13 32 2 91 -8 38 -11 73 -9 77 3 5 24 8 47 8 23 0 73
7 111 15 38 8 72 13 76 10 4 -2 10 -60 13 -127 11 -257 94 -514 215 -666 l18
-23 64 29 c36 16 92 37 124 47 113 32 175 71 274 172 50 52 92 98 92 101 0 4
-11 15 -25 25 -23 16 -25 16 -61 -5 -24 -14 -54 -22 -86 -22 -44 -1 -53 3 -79
32 -34 38 -38 91 -13 164 l15 46 -41 63 c-23 35 -71 123 -106 195 l-65 131 27
41 c15 23 35 42 44 42 9 0 31 16 50 35 19 19 39 35 45 35 6 0 26 -38 45 -85
47 -123 145 -285 171 -285 30 0 76 -50 88 -97 13 -46 105 -130 125 -114 6 6
31 49 56 96 40 76 43 87 28 95 -45 26 -144 119 -197 186 -70 86 -123 177 -161
277 l-28 70 46 69 c25 37 47 66 50 63 3 -2 19 -49 37 -102 59 -181 144 -335
251 -452 l48 -54 43 89 c23 49 59 129 80 179 39 91 104 175 135 175 11 0 -1
24 -40 83 -97 144 -156 295 -187 482 -9 55 -15 129 -13 165 l3 65 55 27 c30
15 67 30 81 33 l26 6 6 -163 c6 -177 23 -287 64 -415 l27 -82 17 39 c40 89
149 40 125 -56 -7 -28 -51 -77 -75 -85 -12 -4 -11 -11 4 -37 11 -18 22 -32 25
-32 16 0 55 55 74 102 l21 53 -43 75 c-89 156 -170 414 -175 556 l-2 68 55 13
c69 16 80 12 80 -31 0 -63 39 -262 70 -359 l31 -96 28 17 c24 14 32 14 45 3
23 -19 20 -70 -6 -98 -21 -23 -21 -24 -4 -61 23 -48 136 -216 179 -266 l33
-39 40 35 c21 20 64 71 94 113 30 42 72 99 92 125 l37 49 -39 71 c-69 126
-141 291 -191 442 -27 81 -49 156 -49 167 0 12 15 31 38 46 l37 26 -45 -2
c-87 -4 -101 0 -136 35 -28 28 -34 42 -34 75 0 104 166 164 315 113 75 -26 86
-83 29 -152 -24 -28 -26 -36 -19 -88 20 -173 82 -411 147 -569 l30 -73 69 63
c39 34 73 63 78 65 4 1 -13 67 -40 145 -89 267 -127 511 -116 743 9 174 23
250 77 417 26 81 44 147 40 147 -4 0 -39 -16 -78 -36z m-1928 -2137 c14 -22
-3 -51 -34 -55 -21 -3 -39 11 -40 31 0 13 41 48 52 45 7 -3 16 -12 22 -21z"/>
<path d="M24890 4145 c-7 -8 -12 -25 -12 -38 0 -17 744 -1839 1388 -3395 43
-104 56 -146 58 -198 4 -70 19 -101 67 -136 21 -16 264 -42 1844 -194 l1820
-175 1338 5 c1458 6 1369 2 1416 62 16 21 21 41 21 89 0 60 -1 63 -27 68 -16
2 -389 67 -831 143 -442 77 -796 141 -787 142 15 4 91 -5 218 -24 22 -3 37 -2
37 4 0 19 -182 54 -305 59 -112 5 -130 3 -272 -31 -256 -61 -334 -63 -514 -11
-48 14 -97 25 -109 25 -34 0 -20 -31 25 -57 l40 -23 -170 6 c-93 4 -173 9
-177 13 -4 3 -25 45 -46 92 l-40 87 96 35 c121 45 185 61 217 55 39 -8 52 17
20 38 -46 30 -207 2 -347 -60 -15 -7 -33 25 -123 210 -58 120 -102 221 -98
225 15 13 228 77 303 90 119 21 310 15 505 -16 269 -43 488 -35 730 26 44 11
193 54 330 96 872 263 945 280 1295 290 172 5 339 -2 519 -23 81 -9 23 13 -79
30 -161 27 -269 36 -420 36 -323 -1 -553 -50 -1260 -270 -598 -186 -727 -203
-1095 -140 -178 30 -201 32 -360 27 -183 -6 -264 -19 -409 -69 -48 -16 -92
-26 -95 -21 -4 4 -137 279 -296 611 -835 1746 -1010 2105 -1035 2123 -22 16
-190 28 -1640 114 -888 52 -1640 95 -1671 95 -38 0 -61 -5 -69 -15z m2193
-1506 c145 -28 313 -124 443 -254 90 -90 153 -188 191 -297 22 -62 25 -85 21
-163 -7 -143 -60 -224 -183 -282 -54 -25 -70 -28 -170 -28 -87 0 -125 5 -185
23 -300 95 -549 347 -600 610 -40 205 75 372 278 401 60 9 125 6 205 -10z"/>
<path d="M9268 3678 c-56 -35 -73 -64 -73 -128 1 -41 9 -72 33 -123 l31 -68
59 68 c33 37 100 107 150 155 l90 87 -51 12 c-29 6 -86 13 -127 16 -66 4 -80
1 -112 -19z"/>
<path d="M30277 3580 c-13 -62 -29 -393 -26 -518 2 -72 3 -129 1 -127 -2 1
-16 52 -31 111 -47 176 -62 225 -70 219 -4 -2 -4 -33 1 -67 26 -191 53 -343
78 -446 24 -104 28 -142 33 -342 4 -124 13 -283 22 -355 18 -149 54 -296 74
-303 15 -5 17 -37 -24 418 -33 356 -48 781 -43 1148 5 268 0 340 -15 262z"/>
<path d="M32920 3343 c0 -5 -9 -75 -20 -158 -27 -201 -36 -500 -21 -695 12
-154 37 -345 47 -361 13 -22 456 -3 720 31 251 32 675 128 708 161 20 18 -3
17 -104 -7 -252 -60 -591 -106 -905 -124 -99 -6 -222 -15 -274 -22 -72 -8 -95
-8 -101 1 -10 17 -37 218 -51 381 -18 206 -3 650 26 778 4 15 1 22 -10 22 -8
0 -15 -3 -15 -7z"/>
<path d="M8804 3011 c-44 -27 -75 -74 -104 -161 -23 -70 -28 -77 -70 -98 -39
-20 -55 -23 -120 -18 -41 2 -109 14 -150 25 -196 54 -229 62 -287 68 l-62 6
24 -46 c13 -26 29 -78 35 -116 l13 -69 46 -5 c25 -3 47 -9 49 -15 1 -5 13 -7
25 -6 28 5 153 -38 150 -51 -1 -6 -9 -46 -18 -90 -26 -124 -31 -331 -10 -455
44 -264 177 -508 368 -672 98 -84 151 -116 391 -235 250 -124 351 -189 435
-278 33 -36 61 -63 61 -59 0 13 -81 178 -116 236 -20 33 -95 133 -165 221 -71
88 -155 199 -187 246 -50 74 -61 86 -83 83 -37 -4 -51 16 -38 59 10 32 7 42
-34 124 -109 218 -148 354 -154 545 -3 74 0 162 5 195 9 56 8 61 -14 82 -30
27 -39 66 -25 101 13 31 58 62 89 62 13 0 24 11 32 33 7 17 42 90 77 161 34
71 63 133 63 138 0 4 -44 8 -97 8 -79 0 -104 -4 -129 -19z m-143 -569 c-26
-287 68 -633 246 -899 70 -105 192 -234 282 -298 150 -107 61 -78 -110 37
-296 197 -471 489 -519 863 -12 98 -17 336 -6 353 4 7 19 12 34 12 15 0 38 6
52 13 14 8 26 13 27 12 2 -1 -1 -42 -6 -93z"/>
<path d="M31135 2812 c-80 -18 -576 -24 -679 -8 l-59 9 6 -114 c6 -119 46
-374 73 -469 13 -46 27 -67 92 -130 97 -95 180 -141 268 -148 57 -4 70 -1 139
31 148 71 286 182 301 244 7 27 -12 476 -23 561 -7 49 -7 49 -118 24z m85 -44
c0 -13 7 -128 15 -256 18 -269 15 -292 -44 -345 -52 -47 -150 -113 -221 -148
-102 -51 -170 -37 -307 60 -119 84 -138 121 -172 326 -23 138 -46 353 -40 360
3 2 36 -1 74 -7 92 -14 506 -4 600 15 96 20 95 20 95 -5z"/>
<path d="M8160 2533 c-7 -16 -23 -58 -35 -94 l-23 -66 24 5 c15 3 26 13 28 26
17 83 27 149 23 152 -2 2 -10 -8 -17 -23z"/>
<path d="M7908 2385 c-16 -16 -135 -27 -286 -26 -194 2 -229 -7 -287 -68 -27
-29 -30 -39 -30 -94 0 -68 24 -127 76 -186 36 -42 52 -100 47 -171 -10 -119
115 -393 283 -620 148 -202 292 -335 542 -502 448 -298 583 -438 622 -639 5
-26 5 -26 122 -32 65 -3 212 -2 328 1 l209 7 14 45 c36 121 -22 270 -166 421
-148 155 -345 292 -667 461 -99 52 -205 110 -235 129 -82 53 -201 152 -258
214 -49 53 -50 54 -67 35 -10 -11 -42 -27 -70 -36 -84 -27 -135 -3 -135 63 0
37 35 108 73 150 l20 23 -42 91 c-65 138 -92 257 -98 424 -3 96 0 168 9 228
13 78 12 98 -4 82z m-228 -136 c-5 -46 -10 -142 -10 -214 1 -378 101 -681 299
-897 28 -31 51 -59 51 -63 0 -17 -106 84 -163 155 -117 147 -198 308 -246 490
l-23 85 -41 0 c-40 0 -42 2 -45 32 -2 24 5 40 31 70 l33 38 -9 122 -9 122 68
75 c37 42 69 74 71 73 1 -2 -2 -41 -7 -88z"/>
<path d="M8081 2266 c-19 -112 -24 -248 -11 -331 55 -359 287 -656 696 -888
308 -175 453 -272 581 -391 189 -175 276 -371 230 -518 -8 -27 -11 -46 -7 -43
14 8 50 94 60 143 21 94 -56 302 -157 427 -103 127 -257 234 -578 402 -205
107 -278 153 -379 238 -136 115 -263 311 -319 490 -38 124 -51 217 -52 377 l0
146 -27 4 c-25 4 -27 2 -37 -56z"/>
<path d="M6400 2300 c0 -14 7 -20 22 -20 20 0 21 1 3 20 -10 11 -20 20 -22 20
-1 0 -3 -9 -3 -20z"/>
<path d="M7082 1629 c-46 -4 -99 -16 -120 -26 -54 -26 -96 -89 -120 -178 -26
-94 -56 -129 -126 -150 -64 -19 -155 -19 -319 1 -161 20 -289 15 -368 -15 -73
-28 -129 -87 -194 -208 -27 -51 -70 -122 -96 -157 -116 -157 -338 -287 -529
-310 -135 -16 -127 -13 -134 -59 -14 -87 -90 -160 -202 -193 -48 -15 -97 -18
-260 -19 l-201 0 -48 -30 c-63 -39 -87 -84 -82 -150 2 -27 10 -63 18 -80 17
-35 -46 -33 530 -20 l386 8 -9 46 c-10 50 -16 256 -8 264 3 3 24 8 48 12 l42
7 0 -166 0 -166 56 0 c44 0 55 3 51 14 -37 95 -76 289 -65 318 3 8 26 20 49
27 24 7 65 24 91 37 26 13 50 24 53 24 3 0 5 -15 5 -32 0 -67 31 -219 61 -302
l31 -86 355 0 355 0 -30 38 c-42 53 -117 186 -146 258 -86 213 -99 453 -35
661 19 62 20 62 64 69 49 7 264 -11 277 -24 4 -4 3 -48 -3 -97 -35 -282 50
-604 220 -836 l49 -66 568 -6 c346 -4 616 -3 689 3 66 5 182 10 258 10 l139 0
-7 33 c-27 131 -151 291 -355 457 -53 42 -136 117 -186 166 l-91 89 2 -96 c1
-53 5 -101 9 -107 11 -18 -36 -15 -63 4 -23 17 -24 20 -17 123 5 85 3 112 -9
135 -8 16 -13 31 -10 34 2 3 -17 32 -44 66 -131 166 -273 424 -328 598 l-28
88 -45 -1 c-25 -1 -82 -5 -128 -10z m178 -379 c18 -52 54 -141 81 -197 l50
-102 29 17 c27 15 32 16 57 2 39 -22 51 -75 28 -123 l-17 -37 57 -72 c32 -40
123 -137 203 -216 79 -78 141 -142 136 -142 -19 0 -246 183 -349 282 -75 71
-120 108 -135 108 -17 0 -21 4 -17 20 3 13 -17 50 -65 117 -38 54 -84 124
-101 155 -23 42 -36 56 -47 51 -51 -22 -129 -35 -164 -29 -43 8 -96 54 -96 83
0 56 72 111 158 121 35 4 42 8 37 21 -30 77 -29 93 10 186 21 50 43 96 49 104
7 10 17 -22 38 -120 15 -74 41 -177 58 -229z m-444 -317 c0 -235 50 -411 161
-566 19 -27 32 -52 28 -55 -9 -10 -103 96 -156 177 -86 131 -149 334 -149 481
l0 65 53 21 c28 12 54 22 57 23 3 0 6 -65 6 -146z m-970 -170 c-2 -10 -8 -49
-12 -88 -7 -68 -6 -69 13 -55 139 101 171 111 198 60 38 -73 -7 -205 -84 -245
-16 -8 -47 -16 -70 -17 -22 -2 -41 -5 -41 -7 0 -20 38 -139 61 -190 16 -35 28
-69 27 -73 -4 -11 -67 71 -112 146 -39 65 -86 174 -110 254 l-15 52 39 45 c22
25 51 66 66 90 26 45 50 61 40 28z m-836 -472 c14 -26 3 -50 -26 -57 -33 -8
-54 2 -54 25 0 45 60 68 80 32z"/>
<path d="M3960 1523 c-52 -7 -69 -14 -101 -40 -32 -27 -89 -133 -89 -166 0
-10 -7 -32 -16 -50 -12 -22 -13 -32 -5 -35 22 -7 41 -33 51 -72 14 -51 1 -100
-41 -164 l-32 -47 6 -142 c8 -211 2 -205 117 -92 120 119 190 172 302 230 96
50 194 79 306 90 l74 7 -40 42 c-93 97 -178 227 -237 363 l-32 73 -119 3 c-65
1 -130 1 -144 0z"/>
<path d="M2962 1262 c-80 -29 -114 -63 -194 -195 -99 -165 -197 -259 -343
-328 -135 -65 -173 -71 -420 -73 -244 -2 -255 -4 -313 -70 -62 -70 -50 -170
33 -281 45 -61 58 -98 57 -162 0 -34 -7 -74 -16 -92 -9 -16 -16 -32 -16 -36 0
-7 143 -6 272 1 l105 7 -10 41 c-10 41 -16 340 -7 349 3 3 25 7 50 9 36 2 44
0 42 -12 -8 -32 -14 -339 -8 -364 6 -24 10 -26 62 -26 54 0 56 1 50 22 -34
115 -56 222 -62 297 l-7 89 44 12 c44 11 110 32 139 44 14 6 18 -13 28 -121
11 -124 34 -227 67 -306 l15 -37 120 0 c107 0 120 2 129 19 8 14 7 22 -3 30
-25 21 -93 143 -130 233 -29 70 -76 229 -76 260 0 3 24 29 53 57 l52 50 6
-162 c7 -176 24 -261 76 -377 l30 -65 47 92 c55 106 85 140 133 149 26 5 33
10 28 23 -42 109 -64 325 -46 452 18 118 57 236 83 250 24 13 145 6 243 -15
70 -14 66 2 46 -191 -18 -172 -2 -316 56 -508 l26 -87 46 26 c68 39 94 67 181
190 l78 111 -24 94 c-14 52 -28 138 -31 192 -6 90 -7 97 -27 97 -40 0 -66 28
-66 71 0 48 18 86 67 140 l35 39 -78 0 c-56 0 -121 10 -224 35 -186 45 -321
54 -398 27z m-433 -586 c25 -30 -20 -69 -48 -42 -13 14 -13 18 4 36 21 24 29
25 44 6z m-155 -39 c16 -25 -5 -52 -40 -52 -38 0 -46 36 -12 59 26 18 37 17
52 -7z m-390 -438 c14 -41 0 -78 -38 -96 -84 -39 -118 24 -50 92 42 42 74 44
88 4z"/>
<path d="M3127 908 c-31 -102 -35 -120 -47 -215 -10 -74 -9 -76 15 -95 35 -28
35 -94 0 -136 -22 -26 -24 -37 -19 -72 l7 -41 23 22 c13 12 33 47 44 77 19 50
20 62 9 135 -7 49 -10 143 -7 243 3 90 4 164 3 164 -2 0 -14 -37 -28 -82z"/>
<path d="M6247 867 c-41 -163 -46 -377 -11 -516 22 -87 64 -187 108 -255 l36
-56 86 0 86 0 -19 24 c-81 104 -113 152 -154 231 -89 170 -126 340 -116 527 4
59 5 108 3 108 -2 0 -11 -28 -19 -63z"/>
</g>
</svg>
